<?xml version="1.0" encoding="UTF-8" standalone="no"?>
<!-- Generator: Adobe Illustrator 27.9.5, SVG Export Plug-In . SVG Version: 9.03 Build 54986)  -->

<svg
   version="1.1"
   id="Layer_1"
   x="0px"
   y="0px"
   viewBox="0 0 2000 2000"
   enable-background="new 0 0 2000 2000"
   xml:space="preserve"
   sodipodi:docname="satellite.svg"
   inkscape:version="1.4.2 (f4327f4, 2025-05-13)"
   xmlns:inkscape="http://www.inkscape.org/namespaces/inkscape"
   xmlns:sodipodi="http://sodipodi.sourceforge.net/DTD/sodipodi-0.dtd"
   xmlns="http://www.w3.org/2000/svg"
   xmlns:svg="http://www.w3.org/2000/svg"><defs
   id="defs9" /><sodipodi:namedview
   id="namedview9"
   pagecolor="#505050"
   bordercolor="#eeeeee"
   borderopacity="1"
   inkscape:showpageshadow="0"
   inkscape:pageopacity="0"
   inkscape:pagecheckerboard="0"
   inkscape:deskcolor="#505050"
   inkscape:zoom="0.4035"
   inkscape:cx="1000"
   inkscape:cy="935.56382"
   inkscape:window-width="1920"
   inkscape:window-height="1009"
   inkscape:window-x="1912"
   inkscape:window-y="-8"
   inkscape:window-maximized="1"
   inkscape:current-layer="Layer_1" />
<path
   d="m 245.46957,636.19083 c -1.1635,22.8484 -2.2729,45.0854 -3.4573,67.3175 -0.1509,2.8535 -0.1942,5.9075 -1.1931,8.4609 -0.9091,2.3254 -3.0489,4.094 -4.6457,6.1081 -1.7885,-1.8793 -4.7133,-3.4858 -5.1678,-5.6828 -2.074,-10.0015 -3.7652,-20.125 -5.0063,-30.287 -1.8138,-14.8514 -3.1252,-29.7718 -4.68,-44.9522 -9.0182,8.5074 -17.8673,16.7452 -26.5849,25.1418 -3.0681,2.9545 -6.7152,5.7165 -9.6175,1.5471 -1.2949,-1.8601 0.012,-7.2749 1.7407,-9.825 6.0123,-8.8668 12.7247,-17.1865 19.8182,-26.5717 -8.8386,-1.2839 -16.7052,-2.2099 -24.4956,-3.627 -5.7,-1.0367 -11.3357,-2.5726 -16.9296,-4.1646 -3.8666,-1.1009 -8.0252,-3.4825 -6.2951,-8.2345 1.0437,-2.8663 5.2379,-5.9188 8.2329,-6.1964 12.882,-1.1956 25.8445,-1.3609 38.7756,-1.9852 2.6093,-0.1252 5.2022,-0.6115 9.1408,-1.0961 -6.7588,-11.1619 -12.9715,-21.2452 -18.9932,-31.4585 -2.2444,-3.8084 -7.2802,-8.1977 -2.7677,-12.4345 4.2466,-3.9865 8.1987,1.2052 11.442,4.2192 7.0711,6.5719 13.8971,13.4487 21.6232,20.9819 0.163,-2.5244 0.3377,-4.2079 0.3708,-5.8946 0.6355,-31.8469 1.2231,-63.6938 1.926,-95.5391 0.07,-3.0845 0.2077,-6.482 1.4413,-9.1284 1.1243,-2.4153 4.2722,-5.9444 5.6491,-5.5384 2.3955,0.7029 5.3922,3.7875 5.8676,6.3553 1.2097,6.5285 1.4206,13.3171 1.576,20.0126 0.682,29.2229 1.1963,58.4507 1.7899,87.6768 0.051,2.5309 0.2422,5.0585 0.4799,9.8314 3.6185,-5.1741 6.1756,-8.6149 8.5157,-12.2162 5.9961,-9.2248 11.8635,-18.5458 17.8642,-27.7673 1.3996,-2.1506 2.8109,-4.598 4.7892,-5.9284 2.1264,-1.4299 4.9269,-1.7044 7.4331,-2.4843 0.2198,2.9834 1.3473,6.3408 0.4501,8.8652 -1.3981,3.9336 -4.0042,7.4402 -6.3938,10.8922 -8.2016,11.8519 -16.5304,23.6011 -25.5409,36.4272 4.3723,-0.2135 7.8173,-0.4718 11.264,-0.5344 19.4131,-0.3483 38.825,-0.6596 58.2396,-0.9453 1.3277,-0.019 2.9815,-0.2134 3.9252,0.5119 2.1322,1.6386 5.7193,4.1887 5.4425,5.662 -0.4798,2.5549 -3.1892,6.1563 -5.3947,6.5527 -11.1967,2.0141 -22.519,3.2675 -33.8218,4.5401 -11.0202,1.2406 -22.0674,2.181 -33.8592,3.3269 4.773,6.8206 9.2469,12.9673 13.4576,19.3145 2.5121,3.7875 5.0659,8.8717 0.8658,12.0509 -2.385,1.8055 -7.8517,1.0576 -10.8616,-0.6772 -5.7794,-3.3334 -10.802,-8.1864 -16.4152,-12.6271 z m -10.1412,-8.3549 c -0.4949,-0.5312 -0.9897,-1.0624 -1.4862,-1.5936 -1.4116,1.5133 -4.1149,3.1118 -4.0357,4.5289 0.9749,17.1961 2.3596,34.3633 3.6378,51.5385 0.6282,-0.051 1.2562,-0.1042 1.8841,-0.1557 0,-18.1044 0,-36.2121 0,-54.3181 z m 25.5858,8.7304 c -4.7043,-5.8112 -9.4083,-11.624 -14.5715,-18.0017 -2.3116,14.065 -4.0506,9.4254 14.5715,18.0017 z m -43.8952,-50.9479 c -0.7014,0.5617 -1.4028,1.125 -2.1042,1.6867 2.5706,4.2625 5.0034,8.6342 7.825,12.6961 0.5682,0.8185 2.6121,0.459 3.9743,0.6403 -0.1793,-1.263 0.038,-2.8679 -0.6071,-3.7313 -2.8963,-3.8773 -6.0365,-7.5461 -9.088,-11.2918 z"
   id="path1"
   style="stroke-width:1.54911" />
<path
   d="m 1400.2694,1318.257 c 8.0551,-9.0049 16.0458,-18.0788 24.2101,-26.968 2.1846,-2.38 4.743,-4.4921 7.442,-6.1403 1.1394,-0.6949 3.6873,-0.4975 4.5112,0.4172 1.0751,1.194 1.9275,3.9047 1.3757,5.2592 -1.6284,3.9928 -3.6934,7.8814 -6.1277,11.3768 -8.2539,11.8487 -16.7396,23.5113 -25.8085,36.1833 8.1014,0 15.4178,0.2439 22.7163,-0.05 16.4645,-0.6629 32.9216,-1.5954 49.3816,-2.4042 1.4519,-0.071 3.1371,-0.5553 4.3109,0.052 1.9558,1.0112 3.5872,2.7508 5.3546,4.1823 -1.4475,1.7813 -2.6766,4.7889 -4.3797,5.1372 -9.2453,1.889 -18.5788,3.3765 -27.9333,4.5257 -16.5228,2.0269 -33.0816,3.7088 -50.1517,5.593 7.7261,8.6726 15.1412,16.9809 22.5354,25.3118 1.3353,1.5053 3.0414,2.9033 3.7352,4.72 0.7222,1.892 1.2889,5.235 0.3723,6.1432 -1.3981,1.3883 -4.9509,2.4587 -6.1605,1.5279 -7.8532,-6.0423 -15.3655,-12.603 -22.8419,-19.1861 -0.7432,-0.6547 -0.3679,-2.6433 -0.7507,-3.9303 -0.5427,-1.8311 -1.3068,-3.5885 -2.9636,-4.6701 0,15.8014 0.032,31.6012 -0.01,47.4028 -0.045,18.2087 -0.04,36.4191 -0.32,54.6247 -0.06,3.8981 0.4964,9.4798 -4.8866,9.7415 -4.9389,0.2407 -5.5549,-4.561 -6.156,-8.8909 -3.7397,-26.9506 -7.5931,-53.8832 -11.4315,-80.8177 -0.4201,-2.9481 -0.9913,-5.8705 -1.7091,-10.0802 -6.1067,7.3471 -11.1263,13.9929 -16.8084,19.9035 -2.0799,2.1634 -5.9452,3.8453 -8.5844,3.3284 -1.5611,-0.3063 -3.17,-5.3071 -3.2791,-8.2617 -0.3918,-10.5985 -0.1541,-21.2227 -0.1541,-31.4183 -11.6168,0 -22.9017,0 -34.188,0 -2.1816,0 -4.5232,0.6193 -6.506,-0.037 -2.5001,-0.8281 -4.7086,-2.6737 -7.0427,-4.0796 1.6492,-2.5725 2.8754,-6.7965 5.0196,-7.4272 8.5829,-2.5261 17.4185,-4.1423 26.2227,-5.6829 5.2141,-0.9116 10.5447,-1.0528 17.7759,-1.7203 -3.4526,-12.0751 -6.7781,-23.2466 -9.7986,-34.5093 -1.0945,-4.0861 -5.848,-9.2827 -0.3035,-12.1794 2.3715,-1.2389 7.8622,2.0927 10.7795,4.7873 9.1107,8.4158 17.6697,17.5186 26.4425,26.355 0.7013,-0.1621 1.4026,-0.3242 2.1039,-0.4847 0,-7.6632 -0.4875,-15.3681 0.087,-22.9816 2.1846,-29.0094 4.6802,-57.9933 7.1444,-86.9786 0.3843,-4.513 1.283,-9.6694 6.6047,-9.5074 5.8405,0.1784 6.1575,5.7247 6.2502,10.4862 0.6011,30.9563 1.1035,61.9157 1.6553,92.8735 0.045,2.4971 0.2213,4.9927 0.3379,7.4881 0.643,0.329 1.283,0.6548 1.9245,0.9807 z m -52.4574,-5.0232 c 2.3924,9.5633 4.7849,19.1267 7.1415,28.5489 5.4189,0 10.1828,0 16.1535,0 -3.0893,-14.6364 -16.1595,-18.8893 -23.295,-28.5489 z m 8.2465,69.2561 c 5.54,-8.2072 17.2002,-11.64 16.2806,-24.7918 -6.0275,0.6676 -11.1982,1.2405 -16.2806,1.8038 0,8.2073 0,15.5977 0,22.988 z m 32.2816,-19.4236 c -1.2905,0.042 -2.5809,0.084 -3.8728,0.1268 -2.4807,15.4758 3.3599,30.6673 3.8728,45.2362 0,-14.6059 0,-29.9836 0,-45.363 z m -2.8276,-31.237 c 0.459,0.014 0.9166,0.028 1.3756,0.042 0,-8.1961 0,-16.3921 0,-24.5866 -0.459,-0.012 -0.9166,-0.023 -1.3756,-0.033 0,8.1929 0,16.3858 0,24.5785 z"
   id="path2"
   style="stroke-width:1.54911" />
<path
   d="m 1742.7086,1669.9261 c 9.6879,-10.8295 19.2995,-21.7427 29.1176,-32.4357 2.6274,-2.8614 5.7045,-5.402 8.9508,-7.384 1.3697,-0.8362 4.435,-0.5986 5.4265,0.5024 1.2933,1.4362 2.319,4.6974 1.6551,6.3247 -1.9574,4.8034 -4.4424,9.4798 -7.3701,13.6831 -9.9271,14.2511 -20.134,28.2777 -31.0406,43.5188 9.7432,0 18.5444,0.2938 27.3216,-0.06 19.8037,-0.7959 39.5952,-1.9178 59.3926,-2.8919 1.7464,-0.085 3.774,-0.6676 5.1856,0.062 2.3537,1.2164 4.3139,3.3077 6.4403,5.0313 -1.7406,2.1409 -3.2194,5.7598 -5.2664,6.1787 -11.119,2.2726 -22.3455,4.062 -33.596,5.442 -19.8723,2.4379 -39.7878,4.4615 -60.3181,6.7278 9.2917,10.4313 18.2111,20.4234 27.1037,30.4425 1.6059,1.8103 3.6571,3.4922 4.4915,5.678 0.8689,2.2756 1.5493,6.2959 0.4487,7.3889 -1.6822,1.669 -5.9542,2.956 -7.4091,1.8359 -9.4457,-7.2669 -18.4801,-15.158 -27.4728,-23.0748 -0.8943,-0.7864 -0.4426,-3.1775 -0.9032,-4.7279 -0.6533,-2.2034 -1.573,-4.3154 -3.5647,-5.617 0,19.0048 0.037,38.008 -0.012,57.0127 -0.054,21.8999 -0.05,43.8031 -0.3841,65.6983 -0.072,4.6879 0.5982,11.401 -5.8779,11.7155 -5.9408,0.2888 -6.6825,-5.4854 -7.4047,-10.6933 -4.4992,-32.4151 -9.1318,-64.8058 -13.7489,-97.2016 -0.5055,-3.5453 -1.1919,-7.0612 -2.0562,-12.123 -7.3448,8.8361 -13.3813,16.83 -20.2161,23.9395 -2.5017,2.6031 -7.1505,4.6254 -10.325,4.0026 -1.8765,-0.3675 -3.813,-6.3841 -3.9445,-9.9357 -0.4709,-12.7474 -0.1855,-25.5252 -0.1855,-37.7881 -13.9718,0 -27.546,-0.012 -41.1186,0.012 -2.6243,0 -5.4398,0.7462 -7.8247,-0.043 -3.0073,-0.9968 -5.6628,-3.2147 -8.4709,-4.9061 1.9829,-3.0943 3.4587,-8.1751 6.038,-8.9344 10.3219,-3.0378 20.9488,-4.9814 31.5384,-6.835 6.2712,-1.0977 12.6829,-1.2662 21.3796,-2.0688 -4.1524,-14.5238 -8.1524,-27.9582 -11.7844,-41.5065 -1.3173,-4.9141 -7.0337,-11.1634 -0.3648,-14.6491 2.8531,-1.491 9.4563,2.5164 12.9656,5.7582 10.9573,10.1218 21.2525,21.0685 31.8031,31.6976 0.8432,-0.1942 1.6866,-0.3883 2.53,-0.5843 0,-9.2166 -0.5863,-18.4846 0.1025,-27.6419 2.6287,-34.8914 5.6297,-69.7505 8.5935,-104.6113 0.4619,-5.4278 1.543,-11.629 7.9441,-11.4347 7.025,0.215 7.4063,6.8864 7.5169,12.6111 0.7238,37.2328 1.3264,74.4671 1.9902,111.6997 0.053,3.0044 0.2678,6.0039 0.4067,9.0066 0.7747,0.3996 1.5446,0.7912 2.3147,1.1828 z m -63.0917,-6.0405 c 2.8771,11.5019 5.7553,23.0041 8.5904,34.3361 6.5179,0 12.2478,0 19.4296,0 -3.7174,-17.604 -19.4371,-22.7169 -28.02,-34.3361 z m 9.9196,83.297 c 6.663,-9.8714 20.6872,-14.0007 19.5807,-29.8183 -7.2491,0.8024 -13.4681,1.4926 -19.5807,2.1698 0,9.87 0,18.7593 0,27.6485 z m 38.8248,-23.3618 c -1.552,0.05 -3.1055,0.1005 -4.6576,0.1508 -2.9833,18.6132 4.0403,36.8844 4.6576,54.4064 0,-17.5651 0,-36.0612 0,-54.5572 z m -3.4,-37.5698 c 0.5516,0.016 1.1034,0.033 1.6552,0.05 0,-9.857 0,-19.7141 0,-29.5712 -0.5518,-0.014 -1.1036,-0.028 -1.6552,-0.04 0,9.8537 0,19.7078 0,29.5615 z"
   id="path3"
   style="stroke-width:1.54911" />
<g
   id="g9"
   transform="matrix(1.6831316,0,0,1.890819,-731.84086,-994.90747)">
	<path
   d="m 1610.136,846.392 c -63.089,-21.366 -126.093,-42.993 -189.375,-63.777 -41.341,-13.578 -83.175,-25.626 -126.813,-29.511 -15.236,-1.356 -30.586,-1.807 -45.183,3.776 -20.703,7.918 -37.128,21.877 -51.397,38.451 -2.333,2.709 -3.091,6.748 -4.706,10.11 -1.428,2.972 -2.451,6.439 -4.67,8.677 -7.728,7.791 -16.42,14.669 -23.779,22.773 -11.431,12.588 -22.537,25.537 -32.87,39.031 -6.556,8.56 -5.395,16.215 1.381,24.715 1.94,2.434 3.913,4.858 6.06,7.107 3.244,3.399 3.37,6.494 0.461,10.389 -6.665,8.924 -12.711,18.314 -19.458,27.174 -6.443,8.462 -13.102,16.815 -20.302,24.631 -9.32,10.117 -9.844,9.921 -16.963,-1.525 -9.397,-15.112 -19.91,-29.216 -33.786,-40.626 -26.613,-21.882 -56.739,-37.528 -88.498,-50.318 -3.144,-1.266 -6.586,-2.198 -8.624,1.63 -2.07,3.89 0.742,6.052 3.578,7.959 7.477,5.029 14.907,10.134 22.467,15.035 19.601,12.707 33.477,30.262 42.821,51.383 10.833,24.486 18.099,50.153 23.599,76.314 1.867,8.879 2.856,17.885 1.032,27.079 -2.068,-4.627 -3.83,-9.316 -5,-14.147 -7.542,-31.183 -19.425,-60.395 -38.235,-86.628 -12.906,-18 -25.84,-35.961 -42.186,-51.077 -18.104,-16.743 -39.433,-24.754 -64.212,-22.844 -7.496,0.578 -14.978,1.345 -23.842,2.15 3.855,-4.442 6.951,-8.199 10.245,-11.773 25.989,-28.202 52.491,-55.948 77.919,-84.646 39.018,-44.038 76.859,-89.079 112.431,-136.002 30.255,-39.909 81.667,-65.155 139.714,-47.685 40.768,12.269 71.388,34.321 83.312,77.295 1.46,5.259 4.297,10.324 7.399,14.861 1.586,2.321 5.189,4.574 7.852,4.542 4.007,-0.049 5.353,-4.235 5.174,-7.735 -0.515,-10.095 -0.322,-20.445 -2.62,-30.172 -2.56,-10.836 -0.526,-19.156 6.036,-27.975 10.932,-14.691 21.283,-29.888 27.02,-47.673 1.865,-5.781 1.825,-10.95 -1.721,-15.839 -12.375,-17.065 -27.078,-31.463 -46.193,-41.036 -10.398,-5.206 -19.769,-5.001 -29.292,2.225 -17.358,13.172 -35.06,25.889 -52.609,38.808 -0.656,0.483 -1.296,1.022 -1.824,1.637 -2.894,3.377 -2.017,7.459 2.115,9.174 2.099,0.871 4.383,1.3 6.587,1.914 22.13,6.17 41.004,17.878 57.422,33.76 2.082,2.015 4.323,4.076 7.249,1.896 3.047,-2.271 2.085,-5.15 0.356,-7.842 -3.805,-5.925 -7.417,-11.99 -11.51,-17.709 -4.054,-5.664 -6.821,-5.702 -10.832,-1.589 -12.907,-6.115 -25.541,-12.1 -38.586,-18.28 17.041,-11.963 34.305,-24.099 51.591,-36.202 3.438,-2.407 7.008,-2.036 10.735,-0.482 19.593,8.173 33.873,22.629 46.244,39.251 1.144,1.536 1.555,4.602 0.843,6.368 -3.358,8.322 -6.638,16.774 -11.058,24.546 -5.902,10.38 -12.619,20.323 -19.404,30.165 -3.703,5.371 -4.9,10.465 -3.254,16.991 2.115,8.39 2.943,17.103 4.325,25.677 -0.505,0.111 -1.01,0.223 -1.515,0.334 -1.047,-3.018 -2.191,-6.008 -3.127,-9.06 -6.632,-21.608 -18.237,-39.656 -36.633,-53.301 -17.636,-13.081 -37.533,-20.266 -58.765,-24.642 -19.278,-3.974 -38.572,-5.632 -57.953,-1.177 -33.738,7.755 -61.163,25.68 -82.092,53.033 -32.991,43.118 -68.005,84.545 -104.141,125 -27.07,30.307 -55.357,59.525 -82.924,89.391 -7.101,7.693 -13.755,15.831 -20.103,24.156 -1.432,1.878 -1.789,5.988 -0.676,7.964 0.954,1.694 4.69,1.916 7.254,2.555 0.871,0.217 1.914,-0.369 2.889,-0.437 14.18,-0.997 28.447,-3.415 42.524,-2.594 19.421,1.132 34.754,12.07 47.527,26.119 32.903,36.189 59.874,75.802 70.905,124.541 1.61,7.112 4.583,13.968 7.446,20.722 1.576,3.719 4.602,6.646 9.235,5.902 4.699,-0.756 6.424,-4.702 6.783,-8.613 0.61,-6.645 0.986,-13.424 0.37,-20.047 -2.063,-22.167 -9.342,-43.115 -15.809,-64.237 -8.12,-26.523 -20.047,-50.847 -40.442,-70.311 -0.088,-0.084 0.128,-0.485 0.321,-1.14 6.664,4.04 13.317,7.897 19.793,12.032 20.349,12.994 38.76,28.051 51.616,48.974 2.914,4.743 5.919,9.451 9.191,13.949 6.028,8.284 12.118,9.207 19.946,2.828 4.044,-3.294 8.028,-6.878 11.212,-10.974 11.256,-14.482 22.229,-29.187 33.168,-43.912 10.732,-14.445 10.585,-16.463 -1.092,-30.444 -6.909,-8.272 -7.604,-10.911 -0.591,-19.239 11.801,-14.015 24.314,-27.446 36.844,-40.827 5.925,-6.327 12.832,-11.733 18.783,-18.037 2.436,-2.58 3.623,-6.387 5.197,-9.722 1.697,-3.596 2.281,-8.231 4.926,-10.773 8.477,-8.147 17.444,-15.838 26.68,-23.124 7.798,-6.151 16.913,-10.004 26.756,-11.741 16.375,-2.889 32.704,-1.194 48.93,1.217 28.876,4.29 57.13,11.536 84.771,20.676 71.02,23.483 141.808,47.667 212.682,71.594 1.474,0.497 2.853,1.273 5.202,2.338 -4.432,5.31 -8.014,10.423 -12.394,14.721 -36.026,35.349 -72.189,70.561 -108.362,105.76 -2.336,2.273 -5.034,4.196 -7.676,6.128 -5.878,4.297 -12.285,5.406 -18.979,2.25 -6.953,-3.279 -13.924,-6.583 -20.589,-10.399 -23.795,-13.628 -48.345,-25.562 -74.505,-33.956 -42.261,-13.56 -85.906,-21.257 -129.158,-30.688 -20.223,-4.409 -40.034,-10.731 -59.971,-16.402 -3.453,-0.982 -6.599,-3.047 -9.886,-4.611 0.131,-0.481 0.26,-0.961 0.39,-1.442 5.474,0.26 10.994,0.17 16.413,0.866 6.967,0.895 13.84,2.5 20.779,3.639 3.219,0.529 6.481,-0.381 6.784,-3.944 0.397,-4.673 3.58,-6.682 6.602,-9.138 12.836,-10.431 25.753,-20.765 38.422,-31.396 6.2,-5.202 6.021,-5.467 14.011,-1.667 -4.932,5.613 -9.778,11.12 -14.615,16.635 -3.455,3.94 -7.205,7.668 -10.27,11.892 -3.911,5.389 -2.583,10.462 3.378,13.425 3.483,1.73 7.264,3.001 11.041,3.978 20.57,5.325 41.237,10.282 61.761,15.78 20.432,5.474 38.924,15.447 57.115,25.929 12.701,7.319 24.612,8.689 35.384,-3.333 0.099,-0.111 0.294,-0.137 0.749,-0.335 4.057,3.994 8.164,1.812 12.365,-0.296 13.303,-6.673 26.53,-13.522 40.056,-19.713 3.035,-1.389 7.354,-1.15 10.761,-0.328 10.323,2.489 20.449,5.796 30.757,8.362 1.747,0.435 4.946,-0.665 5.778,-2.064 0.839,-1.412 0.337,-4.904 -0.904,-6.063 -9.287,-8.676 -20.124,-15.09 -33.162,-12.549 -10.099,1.969 -17.84,-2.864 -27.285,-5.18 9.668,-10.296 18.755,-19.934 27.781,-29.629 1.437,-1.544 3.167,-3.181 3.715,-5.077 0.494,-1.708 0.2,-4.574 -0.936,-5.566 -1.165,-1.017 -3.915,-0.855 -5.709,-0.324 -1.585,0.47 -2.896,2.07 -4.178,3.324 -10.074,9.855 -20.219,19.644 -30.09,29.699 -2.509,2.556 -4.508,3.27 -8.041,2.153 -47.363,-14.968 -94.782,-29.757 -142.18,-44.611 -1.603,-0.502 -3.137,-1.224 -5.115,-2.007 1.796,-2.262 3.194,-4.058 4.629,-5.825 11.57,-14.251 23.163,-28.482 34.708,-42.754 1.954,-2.415 4.243,-4.773 5.379,-7.564 0.858,-2.109 1.051,-5.605 -0.163,-7.126 -1.229,-1.541 -4.664,-2.17 -6.924,-1.825 -2.797,0.428 -5.654,1.884 -8.002,3.569 -8.631,6.196 -17.547,12.129 -25.451,19.175 -10.875,9.695 -21.031,20.212 -31.265,30.604 -2.576,2.616 -4.871,3.074 -8.189,2.002 -5.126,-1.656 -10.35,-3.04 -15.593,-4.286 -4.054,-0.964 -8.084,-0.72 -10.222,3.544 -0.779,1.553 -1.079,4.157 -0.271,5.454 0.706,1.132 3.251,1.265 5.029,1.553 5.463,0.885 10.948,1.634 16.425,2.435 0.138,0.636 0.276,1.272 0.415,1.908 -10.519,8.551 -21.049,17.087 -31.549,25.659 -4.435,3.621 -9.248,6.92 -13.043,11.128 -2.352,2.608 -4.042,3.268 -7.356,2.534 -11.541,-2.558 -23.205,-4.513 -35.047,-2.2 -4.423,0.864 -8.801,2.391 -9.79,7.634 -0.961,5.093 2.363,8.135 6.28,10.065 7.906,3.894 15.726,8.571 24.144,10.713 30.564,7.774 61.385,14.53 92.062,21.87 27.343,6.543 54.794,12.726 81.883,20.207 31.15,8.602 59.449,23.883 87.549,39.562 24.354,13.589 33.272,12.635 53.475,-6.385 33.53,-31.566 66.546,-63.68 99.623,-95.723 5.869,-5.685 11.287,-11.906 16.382,-18.303 9.736,-12.208 7.455,-19.789 -7.409,-24.822 z m -160.943,58.082 c 0.615,-0.685 2.062,-1.21 2.915,-0.991 3.226,0.829 6.365,1.995 10.457,3.337 -9.057,4.587 -17.195,8.709 -25.333,12.831 -0.205,-0.221 -0.41,-0.443 -0.615,-0.665 4.174,-4.854 8.301,-9.749 12.576,-14.512 z m -15.506,-6.943 c 1.04,0.32 2.021,0.831 4.257,1.765 -10.99,11.055 -21.26,21.758 -32.062,31.893 -1.848,1.733 -6.204,1.954 -8.994,1.252 -4.196,-1.056 -8.278,-3.151 -11.982,-5.482 -28.663,-18.032 -60.325,-27.917 -93.123,-34.91 -11.131,-2.373 -22.136,-5.343 -33.977,-8.229 1.297,-1.819 1.908,-2.867 2.7,-3.754 7.519,-8.426 15.152,-16.753 22.553,-25.282 1.929,-2.224 3.598,-2.555 6.339,-1.706 48.076,14.875 96.188,29.645 144.289,44.453 z m -125.261,-94.366 c 0.537,0.455 1.074,0.911 1.611,1.367 -0.707,1.032 -1.351,2.115 -2.131,3.09 -7.566,9.448 -15.401,18.695 -22.625,28.397 -3.202,4.3 -6.249,4.968 -9.13,3.21 10.697,-11.953 21.485,-24.009 32.275,-36.064 z"
   id="path4" />
	<path
   d="m 1150.243,941.611 c -24.338,32.527 -48.552,65.147 -72.628,97.868 -10.189,13.847 -19.755,28.153 -29.988,41.966 -5.859,7.908 -13.782,13.418 -23.089,16.904 -8.096,3.032 -8.845,3.109 -13.572,-4.291 -8.815,-13.8 -17.339,-27.786 -25.985,-41.693 -12.024,-19.342 -27.356,-35.555 -46.288,-48.217 -3.879,-2.595 -8.347,-4.562 -12.818,-5.901 -1.97,-0.59 -5.614,0.425 -6.698,1.973 -1.125,1.605 -0.831,5.137 0.211,7.102 1.484,2.799 4.093,5.062 6.433,7.335 9.165,8.904 18.957,17.229 27.507,26.682 14.098,15.586 27.548,32.025 33.678,52.55 9.577,32.067 9.05,64.262 -1.669,96.139 -5.922,17.613 -12.617,34.827 -24.737,49.323 -7.818,9.349 -17.595,14.898 -30.013,13.73 -15.628,-1.47 -31.328,-2.853 -46.756,-5.615 -22.357,-4.002 -43.064,-13.252 -63.717,-22.398 -2.932,-1.298 -5.839,-2.65 -9.209,-4.182 8.806,-9.062 17.134,-17.609 25.426,-26.191 1.245,-1.289 2.778,-2.58 3.34,-4.167 0.51,-1.44 0.491,-4.049 -0.4,-4.764 -1.208,-0.97 -3.602,-1.123 -5.243,-0.694 -1.402,0.367 -2.465,2.045 -3.668,3.152 -5.457,5.021 -10.911,10.045 -16.998,15.649 3.982,-7.897 7.848,-14.7 10.894,-21.854 2.921,-6.862 1.841,-11.216 -4.232,-15.517 -9.607,-6.804 -19.48,-13.292 -29.631,-19.247 -7.355,-4.314 -12.582,-3.516 -18.671,2.674 -6.066,6.166 -11.534,12.958 -16.902,19.76 -4.539,5.753 -8.56,11.914 -13.108,18.312 -24.968,-13.637 -50.415,-26.219 -68.423,-48.873 -6.756,-8.499 -12.565,-18.109 -17.005,-28.019 -9.634,-21.503 -2.639,-39.384 19.081,-48.656 9.192,-3.924 19.343,-6.154 29.286,-7.654 23.761,-3.585 46.975,0.342 69.825,6.984 31.362,9.116 59.752,23.226 82.128,47.856 16.782,18.473 28.231,40.065 37.935,62.772 6.43,15.048 12.855,30.102 19.565,45.025 1.651,3.672 4.009,7.214 6.74,10.171 4.638,5.02 10.725,3.737 12.382,-2.835 1.248,-4.952 1.925,-10.52 0.978,-15.453 -1.809,-9.421 -4.066,-18.955 -7.714,-27.789 -12.173,-29.477 -29.554,-56.161 -46.106,-83.263 -17.842,-29.213 -42.442,-51.327 -71.847,-68.462 -20.298,-11.828 -41.886,-19.322 -65.512,-19.754 -11.78,-0.215 -23.576,0.523 -35.366,0.746 -5.606,0.106 -11.216,0.018 -16.824,0.018 -0.095,-0.443 -0.191,-0.888 -0.286,-1.332 1.88,-1.488 3.579,-3.327 5.672,-4.4 7.706,-3.949 15.307,-8.263 23.369,-11.333 43.515,-16.57 88.62,-15.486 133.901,-11.172 15.328,1.46 29.498,7.155 43.425,13.464 4.293,1.945 8.749,3.816 13.328,4.774 6.973,1.46 11.798,-4.006 9.158,-10.623 -1.829,-4.586 -5.058,-8.688 -8.073,-12.696 -1.613,-2.144 -4.097,-3.632 -7.008,-6.117 7.062,-2.238 12.724,-4.032 19.047,-6.035 0,1.937 -0.052,2.881 0.008,3.817 0.542,8.536 6.078,12.189 13.766,8.575 9.432,-4.435 16.752,-11.483 22.011,-20.437 3.331,-5.669 2.423,-11.051 -3.119,-14.653 -4.818,-3.131 -10.326,-5.757 -15.892,-7.065 -11.688,-2.747 -23.047,1.141 -34.428,3.333 -15.06,2.9 -24.132,-1.668 -30.582,-15.508 -1.382,-2.966 -2.594,-6.041 -4.294,-8.814 -0.723,-1.178 -2.502,-1.708 -3.801,-2.531 -0.773,1.301 -1.747,2.528 -2.25,3.926 -0.366,1.018 -0.194,2.267 -0.117,3.402 1.352,19.849 19.064,33.171 39.522,29.599 6.609,-1.155 13.102,-2.997 19.727,-4.021 8.655,-1.338 17.414,-2.04 24.989,3.766 1.1,0.843 2.307,3.374 1.843,4.143 -4.11,6.803 -9.919,11.849 -17.096,15.975 -1.418,-11.044 -3.709,-14.072 -11.474,-12.486 -8.247,1.685 -16.362,4.616 -24.096,8.003 -5.426,2.376 -5.789,7.756 -1.661,12.241 2.879,3.129 6.152,5.893 9.112,8.953 1.217,1.258 2.072,2.866 3.091,4.315 -4.799,-1.222 -8.804,-3.075 -12.848,-4.841 -13.856,-6.051 -28.125,-10.678 -43.245,-12.264 -25.992,-2.726 -52.022,-2.931 -78.051,-0.741 -25.526,2.148 -50.102,8.2 -73.068,19.698 -6.495,3.252 -12.58,7.673 -18.029,12.49 -2.189,1.934 -3.668,6.932 -2.715,9.518 0.941,2.553 5.225,5.062 8.289,5.407 7.439,0.84 15.031,0.715 22.542,0.436 17.861,-0.666 35.799,-1.981 53.338,2.432 36.292,9.133 66.563,28.878 90.513,56.946 26.591,31.162 46.088,67.173 63.616,104.091 3.604,7.59 5.596,16.052 7.495,24.304 0.994,4.32 0.176,9.058 0.176,13.607 -0.414,0.095 -0.828,0.192 -1.242,0.287 -1.784,-3.441 -3.817,-6.777 -5.309,-10.34 -6.322,-15.094 -12.403,-30.288 -18.721,-45.382 -11.039,-26.372 -25.113,-50.763 -46.081,-70.706 -37.495,-35.664 -105.824,-57.042 -156.941,-48.854 -14.193,2.273 -27.904,6.035 -39.445,15.199 -13.433,10.667 -19.021,24.646 -15.249,41.355 5.361,23.745 19.226,42.504 37.304,58.145 15.319,13.254 32.877,23.242 50.797,32.556 1.538,0.799 3.057,1.632 4.821,2.575 -1.169,2.014 -2.117,3.525 -2.949,5.097 -8.943,16.919 -17.901,33.829 -26.751,50.796 -1.038,1.99 -2.345,4.501 -1.92,6.414 0.462,2.081 2.457,4.587 4.405,5.383 2.536,1.036 3.838,-1.16 4.355,-3.841 0.457,-2.366 1.449,-4.688 2.535,-6.864 6.353,-12.734 12.699,-25.474 19.27,-38.095 2.627,-5.047 5.823,-9.797 8.949,-14.997 15.236,7.267 30.09,14.351 45.894,21.89 -5.099,5.326 -9.525,10.319 -14.341,14.901 -9.379,8.922 -19.046,17.542 -28.423,26.467 -1.669,1.589 -3.956,4.526 -3.462,6.006 1.346,4.035 -1.174,5.613 -3.216,7.795 -2.799,2.991 -5.622,5.966 -8.288,9.073 -5.034,5.866 -7.417,6.077 -13.297,0.937 -7.14,-6.24 -16.449,-8.078 -23.149,-4.486 -3.349,1.796 -6.083,4.319 -5.546,8.453 0.58,4.463 4.35,5.412 8.034,5.784 5.214,0.526 10.48,0.566 15.679,1.19 1.71,0.205 4.055,1.152 4.792,2.487 6.699,12.127 9.063,24.991 4.181,38.281 -4.365,11.882 -15.299,15.885 -26.779,10.474 -15.809,-7.451 -26.529,-27.608 -23.836,-44.853 1.83,-11.716 7.506,-20.872 18.111,-26.561 7.334,-3.934 17.146,-4.404 21.722,3.85 0.156,0.281 0.844,0.267 2.99,0.869 -1.481,-3.527 -1.843,-6.945 -3.695,-8.255 -3.704,-2.62 -8.121,-5.431 -12.43,-5.768 -11.818,-0.925 -20.632,5.387 -27.414,14.48 -15.939,21.371 -9.32,54.406 14.284,69.936 4.916,3.234 10.859,5.824 16.627,6.665 14.848,2.164 27.11,-8.509 30.363,-25.131 2.386,-12.196 0.114,-23.76 -4.502,-34.981 2.794,-1.863 5.477,-3.183 7.558,-5.144 3.811,-3.589 7.126,-7.7 10.893,-11.339 16.856,-16.285 33.832,-32.445 50.691,-48.727 6.342,-6.124 6.315,-6.356 14.223,-2.638 34.693,16.311 70.718,27.097 109.292,29.651 21.363,1.414 37.738,-4.878 49.859,-22.653 12.459,-18.272 20.262,-38.532 25.496,-59.743 8.239,-33.39 7.662,-66.489 -5.604,-98.765 -0.118,-0.287 0.116,-0.72 0.271,-1.538 1.065,1.615 1.861,2.84 2.675,4.053 4.293,6.389 8.372,12.935 12.945,19.117 4.695,6.347 8.282,7.328 15.806,5.057 12.402,-3.743 23.105,-10.303 30.998,-20.628 8.149,-10.66 15.72,-21.763 23.523,-32.688 27.799,-38.92 55.596,-77.843 83.352,-116.793 1.029,-1.443 1.633,-3.188 2.435,-4.792 -0.642,-0.442 -1.284,-0.884 -1.926,-1.325 -3.698,3.753 -7.885,7.137 -11.011,11.316 z m -204.597,78.449 c 13.649,10.696 25.204,24.072 33.977,39.061 -11.237,-12.919 -22.822,-26.238 -33.977,-39.061 z m -149.111,194.432 c -16.18,-7.791 -31.31,-15.077 -46.906,-22.586 8.785,-12.762 16.917,-25.397 27.875,-35.905 3.306,-3.17 6.675,-3.075 10.245,-0.857 8.481,5.267 16.871,10.683 25.389,15.889 4.488,2.743 5.517,6.265 2.9,10.711 -6.365,10.816 -12.836,21.57 -19.503,32.748 z"
   id="path5" />
	<path
   d="m 639.497,723.709 c 5.08,2.203 10.403,4.01 15.778,5.349 68.681,17.109 135.704,39.332 201.65,64.936 10.501,4.077 21.213,7.633 31.923,11.137 6.163,2.016 11.598,-0.087 16.303,-4.26 2.569,-2.279 5.074,-4.632 7.607,-6.952 -0.431,2.541 -2.043,4.367 -2.504,6.448 -0.447,2.014 0.291,4.29 0.509,6.451 1.921,-0.731 4.566,-0.898 5.647,-2.284 6.64,-8.527 12.923,-17.331 19.331,-26.038 20.098,-27.314 40.176,-54.643 60.329,-81.917 2.429,-3.287 5.662,-6.035 7.742,-9.5 0.974,-1.622 0.086,-4.361 0.041,-6.594 -2.219,0.181 -4.515,0.079 -6.624,0.659 -1.069,0.294 -1.834,1.788 -2.68,2.787 -5.503,6.505 -10.978,13.034 -16.485,19.536 -9.712,11.467 -19.441,22.92 -28.755,33.897 -23.976,-13.494 -49.62,-22.087 -74.215,-33.671 0.658,-0.955 1.216,-1.727 1.735,-2.526 8.02,-12.362 16.062,-24.711 24.029,-37.108 1.678,-2.61 2.821,-5.571 -0.36,-7.84 -3.287,-2.344 -5.561,0.174 -7.485,2.399 -3.215,3.715 -6.29,7.558 -9.27,11.464 -7.144,9.36 -14.2,18.788 -21.242,28.124 -29.36,-12.05 -58.486,-24.004 -88.169,-36.188 1.218,-2.669 2.323,-5.165 3.488,-7.633 5.641,-11.956 11.387,-23.864 16.883,-35.885 1.291,-2.823 1.208,-6.644 -2.048,-7.578 -2.021,-0.58 -5.929,1.094 -7.182,2.967 -3.797,5.671 -7.28,11.701 -9.836,18.018 -3.582,8.849 -6.218,18.081 -9.356,27.438 -1.257,-0.367 -2.809,-0.784 -4.338,-1.272 -12.768,-4.081 -25.467,-8.396 -38.325,-12.167 -6.08,-1.783 -12.43,-2.819 -18.732,-3.557 -1.673,-0.195 -4.456,1.589 -5.173,3.171 -0.55,1.213 0.968,3.889 2.257,5.269 1.387,1.485 3.485,2.453 5.438,3.236 8.651,3.471 17.321,6.901 26.062,10.14 8.392,3.109 16.878,5.963 25.785,9.093 -7.798,12.437 -15.291,24.341 -22.729,36.28 -1.903,3.054 -4.051,6.062 -5.277,9.389 -0.624,1.695 -0.062,4.605 1.126,5.909 0.759,0.834 4.112,0.372 5.467,-0.634 2.446,-1.816 4.365,-4.394 6.329,-6.797 7.985,-9.768 15.958,-19.548 23.832,-29.405 6.724,-8.416 9.871,-9.201 20.144,-4.628 21.35,9.502 42.836,18.697 64.564,28.148 -10.272,14.429 -20.725,29.258 -31.388,43.936 -1.6,2.203 -3.365,4.465 -0.908,6.241 1.584,1.145 5.119,1.264 6.782,0.233 2.503,-1.552 4.33,-4.373 6.102,-6.896 9.415,-13.407 18.702,-26.904 28.08,-40.336 2.599,-3.723 6.017,-6.35 10.712,-4.318 21.016,9.098 42.008,18.258 62.885,27.667 8.63,3.889 9.197,5.087 3.428,12.258 -12.108,15.052 -24.853,29.595 -37.442,44.257 -3.539,4.121 -8.303,4.268 -13.11,2.806 -4.846,-1.473 -9.671,-3.072 -14.379,-4.936 -57.821,-22.893 -116.205,-44.153 -176.103,-61.05 -16.999,-4.796 -34.047,-9.429 -50.963,-14.503 -6.426,-1.927 -6.934,-3.241 -3.78,-9.254 6.537,-12.464 13.279,-24.836 20.379,-36.986 16.911,-28.94 36.664,-55.854 58.578,-81.211 5.797,-6.709 12.706,-10.194 21.624,-8.979 5.829,0.795 11.737,1.368 17.425,2.782 31.065,7.719 60.576,19.932 90.364,31.387 45.349,17.44 90.831,34.536 136.288,51.694 4.723,1.783 9.628,3.128 14.527,4.367 1.086,0.275 2.502,-0.76 3.767,-1.192 -0.609,-1.059 -0.965,-2.523 -1.88,-3.097 -2.061,-1.293 -4.354,-2.255 -6.63,-3.158 -9.726,-3.859 -19.509,-7.573 -29.216,-11.477 -49.503,-19.905 -98.895,-40.09 -148.523,-59.679 -22.668,-8.947 -45.635,-17.214 -69.911,-21.056 -14.428,-2.283 -26.632,1.078 -35.957,12.829 -1.018,1.282 -2.137,2.484 -3.207,3.725 -26.558,30.784 -48.703,64.581 -68.169,100.182 -3.525,6.447 -6.779,13.109 -9.417,19.957 -2.899,7.521 -0.531,12.804 6.828,15.996 z"
   id="path6" />
	<path
   d="m 717.968,1427.135 c -3.679,-2.993 -7.654,-5.621 -11.486,-8.427 -1.145,-0.839 -2.26,-1.718 -4.367,-3.324 4.117,0.691 6.965,1.346 9.851,1.61 3.895,0.356 7.708,-0.108 9.737,-4.081 2.031,-3.974 -0.185,-7.081 -2.933,-9.532 -3.778,-3.369 -7.918,-6.329 -11.889,-9.483 -8.96,-7.115 -18.495,-13.629 -26.739,-21.495 -14.998,-14.312 -27.674,-30.683 -37.786,-48.814 -4.236,-7.596 -12.201,-13.061 -12.574,-23.019 -0.13,-3.468 -4.509,-4.145 -6.601,-1.018 -1.855,2.773 -3.183,6.117 -3.901,9.393 -2.995,13.688 -1.434,26.882 6.487,38.628 7.683,11.393 15.167,23.121 24.313,33.284 15.82,17.576 34.913,31.587 54.077,45.362 4.32,3.105 8.565,6.315 13.907,10.263 -3.762,1.916 -6.175,3.891 -8.852,4.357 -6.086,1.059 -12.378,2.326 -18.452,1.838 -33.989,-2.733 -65.436,-13.357 -92.825,-33.801 -13.45,-10.041 -25.237,-22.299 -37.888,-33.428 -4.882,-4.294 -9.717,-8.85 -15.28,-12.065 -2.463,-1.423 -7.687,-1.026 -9.833,0.749 -2.383,1.972 -3.919,6.588 -3.582,9.819 0.436,4.185 2.474,8.563 4.918,12.1 4.92,7.12 10.006,14.29 16.032,20.453 32.52,33.263 69.875,58.671 115.977,69.75 -1.366,0.608 -2.737,1.129 -4.086,1.079 -10.298,-0.377 -20.693,-0.102 -30.869,-1.456 -37.76,-5.029 -72.548,-18.714 -104.232,-39.473 -22.849,-14.971 -44.461,-31.825 -66.712,-47.716 -4.641,-3.314 -9.42,-6.631 -14.574,-8.985 -7.266,-3.319 -12.79,0.73 -11.575,8.622 0.856,5.56 2.828,11.13 5.286,16.221 4.602,9.535 9.918,18.725 14.878,27.948 -4.219,-0.554 -5.45,0.438 -4.002,4.537 2.224,6.296 4.467,12.737 7.829,18.454 21.063,35.825 47.183,67.372 80.869,92.06 27.96,20.492 58.82,34.139 93.874,36.56 5.495,0.379 11.137,-0.126 16.585,-1.009 1.862,-0.302 4.273,-2.81 4.687,-4.693 0.335,-1.525 -1.678,-3.893 -3.155,-5.386 -1.188,-1.201 -3.119,-1.684 -4.745,-2.433 -9.046,-4.171 -18.144,-8.232 -27.142,-12.504 -51.062,-24.248 -96.215,-56.463 -133.457,-99.286 -15.666,-18.014 -29.334,-37.357 -38.868,-59.384 -1.354,-3.129 -2.324,-6.424 -3.472,-9.642 3.858,1.366 6.747,3.193 9.465,5.245 13.992,10.566 27.656,21.587 41.958,31.713 34.995,24.777 72.261,44.952 114.651,54.147 19.12,4.148 38.374,7.337 57.981,4.4 5.736,-0.86 11.4,-2.814 16.787,-5.02 1.709,-0.7 3.506,-3.984 3.272,-5.833 -0.227,-1.792 -2.831,-3.539 -4.736,-4.773 -1.272,-0.824 -3.148,-0.721 -4.754,-1.023 -4.822,-0.907 -9.719,-1.524 -14.456,-2.757 -40.818,-10.635 -74.25,-33.642 -103.668,-62.948 -7.127,-7.101 -12.793,-15.695 -18.894,-23.781 -1.453,-1.926 -1.954,-4.569 -2.893,-6.882 0.378,-0.275 0.756,-0.55 1.134,-0.824 1.823,1.241 3.816,2.293 5.434,3.761 3.639,3.301 7.189,6.714 10.605,10.244 33.841,34.981 74.45,56.799 122.974,63.081 11.731,1.519 23.58,2.265 34.867,-2.465 10.867,-4.553 11.874,-11.573 2.843,-18.918 z m -91.763,-107.23 c 1.876,7.008 3.751,14.018 5.64,21.074 -4.02,-3.909 -6.115,-11.214 -5.64,-21.074 z m 13.312,16.878 c 10.548,12.334 21.157,26.712 33.812,38.98 12.563,12.179 27.185,22.234 41.488,33.688 -28.016,0.801 -68.611,-39.485 -75.3,-72.668 z m -180.149,99.909 c 46.808,64.88 109.609,108.718 182.548,139.607 -17.052,0.806 -33.178,-3.156 -48.899,-8.994 -33.315,-12.372 -60.484,-33.52 -84.199,-59.498 -19.32,-21.163 -35.418,-44.62 -49.254,-69.667 -0.208,-0.376 -0.278,-0.828 -0.196,-1.448 z"
   id="path7" />
	<path
   d="m 1290.476,740.639 c 0.623,-2.135 1.496,-4.544 0.95,-6.573 -1.262,-4.693 -2.868,-9.363 -4.938,-13.758 -10.1,-21.443 -25.648,-38.629 -43.119,-54.226 -20.359,-18.176 -43.222,-32.009 -70.139,-37.779 -9.484,-2.033 -19.429,-2.067 -29.185,-2.595 -3.739,-0.203 -7.314,1.432 -8.348,5.543 -1.074,4.272 1.97,6.621 5.099,8.624 2.205,1.411 4.505,2.678 6.792,3.956 12.728,7.11 25.555,14.049 38.179,21.339 19.332,11.164 38.124,23.198 54.238,38.8 7.325,7.092 13.775,15.089 20.621,22.676 -0.444,0.483 -0.889,0.964 -1.334,1.446 -4.727,-0.272 -9.452,-0.752 -14.18,-0.774 -10.711,-0.048 -20.091,2.617 -27.565,11.33 -10.761,12.545 -22.534,24.219 -33.404,36.677 -24.421,27.988 -48.577,56.205 -72.78,84.382 -6.927,8.064 -13.752,16.223 -20.342,24.561 -1.005,1.272 -0.476,3.757 -0.656,5.68 1.952,-0.299 4.48,0.073 5.749,-1.019 4.207,-3.622 8.254,-7.522 11.84,-11.757 18.929,-22.349 37.342,-45.145 56.621,-67.184 19.505,-22.295 39.894,-43.815 59.704,-65.846 4.577,-5.09 10.085,-7.347 16.544,-7.018 7.822,0.398 15.637,1.275 23.404,2.314 7.392,0.989 11.295,-3.331 8.325,-10.184 -1.937,-4.467 -4.184,-9.123 -7.435,-12.637 -10.095,-10.908 -20.011,-22.169 -31.319,-31.727 -22.006,-18.6 -47.561,-31.88 -72.759,-45.575 -1.663,-0.904 -3.286,-1.882 -4.928,-2.825 30.773,2.341 56.9,15.284 79.973,34.746 22.825,19.252 43.35,40.447 54.392,69.403 z"
   id="path8" />
	<path
   d="m 838.582,905.891 c 15.813,-24.688 31.915,-49.191 47.83,-73.813 2.125,-3.288 3.982,-6.779 5.616,-10.336 0.475,-1.033 -0.258,-2.622 -0.437,-3.956 -1.471,0.293 -3.101,0.289 -4.363,0.969 -1.065,0.573 -1.745,1.908 -2.523,2.959 -6.723,9.086 -13.55,18.097 -20.116,27.296 -18.087,25.34 -35.825,50.915 -50.213,78.616 -1.634,3.147 -2.73,6.573 -3.442,8.32 -0.277,6.045 2.038,8.465 5.844,9.724 2.922,0.968 5.021,-0.362 4.319,-3.194 -1.187,-4.794 1.152,-8.265 3.218,-11.922 4.672,-8.269 9.149,-16.673 14.267,-24.663 z"
   id="path9" />
</g>
</svg>
