<?xml version="1.0" encoding="UTF-8" standalone="no"?>
<!-- Created with Inkscape (http://www.inkscape.org/) -->

<svg
   version="1.1"
   id="svg1"
   width="880"
   height="880"
   viewBox="0 0 880 880"
   sodipodi:docname="construction-area.svg"
   inkscape:version="1.3.2 (091e20e, 2023-11-25, custom)"
   xmlns:inkscape="http://www.inkscape.org/namespaces/inkscape"
   xmlns:sodipodi="http://sodipodi.sourceforge.net/DTD/sodipodi-0.dtd"
   xmlns="http://www.w3.org/2000/svg"
   xmlns:svg="http://www.w3.org/2000/svg">
  <defs
     id="defs1">
    <clipPath
       clipPathUnits="userSpaceOnUse"
       id="clipPath27">
      <path
         d="M 0,660 H 660 V 0 H 0 Z"
         transform="translate(-336.68161,-168.3594)"
         id="path27" />
    </clipPath>
    <clipPath
       clipPathUnits="userSpaceOnUse"
       id="clipPath29">
      <path
         d="M 0,660 H 660 V 0 H 0 Z"
         transform="translate(-318.22071,-333.12351)"
         id="path29" />
    </clipPath>
    <clipPath
       clipPathUnits="userSpaceOnUse"
       id="clipPath31">
      <path
         d="M 0,660 H 660 V 0 H 0 Z"
         transform="translate(-439.86231,-283.10551)"
         id="path31" />
    </clipPath>
    <clipPath
       clipPathUnits="userSpaceOnUse"
       id="clipPath33">
      <path
         d="M 0,660 H 660 V 0 H 0 Z"
         transform="translate(-410.39941,-283.10551)"
         id="path33" />
    </clipPath>
    <clipPath
       clipPathUnits="userSpaceOnUse"
       id="clipPath35">
      <path
         d="M 0,660 H 660 V 0 H 0 Z"
         transform="translate(-217.62351,-347.66021)"
         id="path35" />
    </clipPath>
    <clipPath
       clipPathUnits="userSpaceOnUse"
       id="clipPath37">
      <path
         d="M 0,660 H 660 V 0 H 0 Z"
         id="path37" />
    </clipPath>
    <clipPath
       clipPathUnits="userSpaceOnUse"
       id="clipPath39">
      <path
         d="M 0,660 H 660 V 0 H 0 Z"
         id="path39" />
    </clipPath>
    <clipPath
       clipPathUnits="userSpaceOnUse"
       id="clipPath41">
      <path
         d="M 0,660 H 660 V 0 H 0 Z"
         transform="translate(-445.61431,-320.30861)"
         id="path41" />
    </clipPath>
    <clipPath
       clipPathUnits="userSpaceOnUse"
       id="clipPath43">
      <path
         d="M 0,660 H 660 V 0 H 0 Z"
         transform="translate(-243.86131,-293.85841)"
         id="path43" />
    </clipPath>
    <clipPath
       clipPathUnits="userSpaceOnUse"
       id="clipPath45">
      <path
         d="M 0,660 H 660 V 0 H 0 Z"
         transform="translate(-102.9253,-120.6172)"
         id="path45" />
    </clipPath>
  </defs>
  <sodipodi:namedview
     id="namedview1"
     pagecolor="#ffffff"
     bordercolor="#000000"
     borderopacity="0.25"
     inkscape:showpageshadow="2"
     inkscape:pageopacity="0.0"
     inkscape:pagecheckerboard="0"
     inkscape:deskcolor="#d1d1d1"
     inkscape:zoom="0.67272727"
     inkscape:cx="439.25676"
     inkscape:cy="440"
     inkscape:window-width="1440"
     inkscape:window-height="830"
     inkscape:window-x="-6"
     inkscape:window-y="-6"
     inkscape:window-maximized="1"
     inkscape:current-layer="g1">
    <inkscape:page
       x="0"
       y="0"
       inkscape:label="1"
       id="page1"
       width="880"
       height="880"
       margin="130.79294 76.930664 40.886665 94.748665"
       bleed="0" />
  </sodipodi:namedview>
  <g
     id="g1"
     inkscape:groupmode="layer"
     inkscape:label="1">
    <g
       id="group-MC0">
      <path
         id="path2"
         d="m 71.061,98.095 h 531.24 v 531.24 H 71.061 Z"
         style="fill:#f6f8e9;fill-opacity:1;fill-rule:evenodd;stroke:none"
         transform="matrix(1.3333333,0,0,-1.3333333,0,880)" />
      <path
         id="path3"
         d="M 0,0 -38.741,-27.187 0,-54.378 Z M 0,75.636 -38.741,48.447 0,21.258 Z M 0,151.272 -38.741,124.083 0,96.895 Z M -46.106,-34.987 v -60.039 l 42.775,30.018 z m 0,75.636 V -19.392 L -3.331,10.63 Z m 0,75.636 v -60.04 l 42.775,30.021 z m 0,75.636 v -60.039 l 42.775,30.019 z m -10.951,15.434 h 10.951 v -2.466 L 0,172.531 v 34.824 H 10.95 V -122.783 H 0 v 47.146 l -46.106,-32.356 v -14.79 h -10.951 z"
         style="fill:#cdd1bb;fill-opacity:1;fill-rule:evenodd;stroke:none"
         transform="matrix(1.3333333,0,0,-1.3333333,184.33013,317.362)" />
      <path
         id="path4"
         d="M 0,0 H 1.15 V 12.035 H 3.756 V 0 H 6.42 V 17.714 H 9.025 V 0 h 2.838 v 9.533 h 2.605 V 0 h 1.218 V -176.066 H 0 Z"
         style="fill:#e3e6d3;fill-opacity:1;fill-rule:evenodd;stroke:none"
         transform="matrix(1.3333333,0,0,-1.3333333,592.30853,267.39453)" />
      <path
         id="path5"
         d="M 0,0 H -1.148 V 12.035 H -3.755 V 0 H -6.418 V 17.714 H -9.024 V 0 h -2.838 v 9.533 h -2.606 V 0 h -1.218 V -176.066 H 0 Z"
         style="fill:#e3e6d3;fill-opacity:1;fill-rule:evenodd;stroke:none"
         transform="matrix(1.3333333,0,0,-1.3333333,680.65107,267.39453)" />
      <path
         id="path6"
         d="M 0,0 H 1.148 V 12.035 H 3.756 V 0 H 6.419 V 17.714 H 9.025 V 0 h 2.836 v 9.533 h 2.608 V 0 h 1.217 V -176.066 H 0 Z"
         style="fill:#e3e6d3;fill-opacity:1;fill-rule:evenodd;stroke:none"
         transform="matrix(1.3333333,0,0,-1.3333333,758.4492,267.39453)" />
      <path
         id="path7"
         d="M 454.575,422.878 H 602.302 V 436.67 H 454.575 Z"
         style="fill:#e3e6d3;fill-opacity:1;fill-rule:evenodd;stroke:none"
         transform="matrix(1.3333333,0,0,-1.3333333,0,880)" />
      <path
         id="path8"
         d="M 454.575,391.373 H 602.302 V 377.58 H 454.575 Z"
         style="fill:#e3e6d3;fill-opacity:1;fill-rule:evenodd;stroke:none"
         transform="matrix(1.3333333,0,0,-1.3333333,0,880)" />
      <path
         id="path9"
         d="m 454.575,332.283 h 147.727 v 13.791 H 454.575 Z"
         style="fill:#e3e6d3;fill-opacity:1;fill-rule:evenodd;stroke:none"
         transform="matrix(1.3333333,0,0,-1.3333333,0,880)" />
      <path
         id="path10"
         d="m 71.061,98.095 h 531.24 V 233.123 H 71.061 Z"
         style="fill:#bd4c1f;fill-opacity:1;fill-rule:evenodd;stroke:none"
         transform="matrix(1.3333333,0,0,-1.3333333,0,880)" />
      <path
         id="path11"
         d="m 71.061,137.519 h 531.24 v 95.604 H 71.061 Z"
         style="fill:#7e2b1a;fill-opacity:1;fill-rule:evenodd;stroke:none"
         transform="matrix(1.3333333,0,0,-1.3333333,0,880)" />
      <path
         id="path12"
         d="m 71.061,233.123 h 531.24 v 50.265 H 71.061 Z"
         style="fill:#f2a50f;fill-opacity:1;fill-rule:evenodd;stroke:none"
         transform="matrix(1.3333333,0,0,-1.3333333,0,880)" />
      <path
         id="path13"
         d="M 0,0 H 1.889 V 19.775 H 6.17 V 0 h 4.378 V 29.108 H 14.83 V 0 h 4.663 v 15.665 h 4.281 V 0 h 2.001 V -245.751 H 0 Z"
         style="fill:#e3e6d3;fill-opacity:1;fill-rule:evenodd;stroke:none"
         transform="matrix(1.3333333,0,0,-1.3333333,216.3652,174.48107)" />
      <path
         id="path14"
         d="M 0,0 H -1.89 V 19.775 H -6.171 V 0 h -4.378 v 29.108 h -4.282 V 0 h -4.663 v 15.665 h -4.281 V 0 h -2.001 V -245.751 H 0 Z"
         style="fill:#e3e6d3;fill-opacity:1;fill-rule:evenodd;stroke:none"
         transform="matrix(1.3333333,0,0,-1.3333333,361.5352,174.48107)" />
      <path
         id="path15"
         d="M 0,0 H 1.889 V 19.775 H 6.172 V 0 h 4.376 v 29.108 h 4.283 V 0 h 4.661 v 15.665 h 4.283 V 0 h 1.999 V -245.751 H 0 Z"
         style="fill:#e3e6d3;fill-opacity:1;fill-rule:evenodd;stroke:none"
         transform="matrix(1.3333333,0,0,-1.3333333,489.37627,174.48107)" />
      <path
         id="path16"
         d="m 179.271,469.035 h 242.752 v 22.664 H 179.271 Z"
         style="fill:#e3e6d3;fill-opacity:1;fill-rule:evenodd;stroke:none"
         transform="matrix(1.3333333,0,0,-1.3333333,0,880)" />
      <path
         id="path17"
         d="M 179.271,417.262 H 422.023 V 394.598 H 179.271 Z"
         style="fill:#e3e6d3;fill-opacity:1;fill-rule:evenodd;stroke:none"
         transform="matrix(1.3333333,0,0,-1.3333333,0,880)" />
      <path
         id="path18"
         d="m 179.271,320.162 h 242.752 v 22.663 H 179.271 Z"
         style="fill:#e3e6d3;fill-opacity:1;fill-rule:evenodd;stroke:none"
         transform="matrix(1.3333333,0,0,-1.3333333,0,880)" />
      <path
         id="path19"
         d="M 0,0 H 2.095 V 21.929 H 6.843 V 0 h 4.854 v 32.278 h 4.749 V 0 h 5.172 v 17.371 h 4.748 V 0 h 2.217 V -272.519 H 0 Z"
         style="fill:#cdd1bb;fill-opacity:1;fill-rule:evenodd;stroke:none"
         transform="matrix(1.3333333,0,0,-1.3333333,419.01173,138.7904)" />
      <path
         id="path20"
         d="M 0,0 H -2.095 V 21.929 H -6.843 V 0 h -4.854 v 32.278 h -4.748 V 0 h -5.171 v 17.371 h -4.748 V 0 h -2.219 V -272.519 H 0 Z"
         style="fill:#cdd1bb;fill-opacity:1;fill-rule:evenodd;stroke:none"
         transform="matrix(1.3333333,0,0,-1.3333333,579.9948,138.7904)" />
      <path
         id="path21"
         d="m 0,0 h 2.093 v 21.929 h 4.75 V 0 h 4.854 v 32.278 h 4.748 V 0 h 5.171 v 17.371 h 4.748 V 0 h 2.219 V -272.519 H 0 Z"
         style="fill:#cdd1bb;fill-opacity:1;fill-rule:evenodd;stroke:none"
         transform="matrix(1.3333333,0,0,-1.3333333,721.76173,138.7904)" />
      <path
         id="path22"
         d="m 333.107,489.256 h 269.194 v 25.133 H 333.107 Z"
         style="fill:#cdd1bb;fill-opacity:1;fill-rule:evenodd;stroke:none"
         transform="matrix(1.3333333,0,0,-1.3333333,0,880)" />
      <path
         id="path23"
         d="M 333.107,431.845 H 602.301 V 406.712 H 333.107 Z"
         style="fill:#cdd1bb;fill-opacity:1;fill-rule:evenodd;stroke:none"
         transform="matrix(1.3333333,0,0,-1.3333333,0,880)" />
      <path
         id="path24"
         d="M 333.107,324.169 H 602.301 V 349.3 H 333.107 Z"
         style="fill:#cdd1bb;fill-opacity:1;fill-rule:evenodd;stroke:none"
         transform="matrix(1.3333333,0,0,-1.3333333,0,880)" />
      <path
         id="path25"
         d="m 71.061,270.45 h 531.24 v 12.938 H 71.061 Z"
         style="fill:#fbca07;fill-opacity:1;fill-rule:evenodd;stroke:none"
         transform="matrix(1.3333333,0,0,-1.3333333,0,880)" />
      <path
         id="path26"
         d="m 0,0 c 110.268,0 200.2,4.565 200.2,10.164 0,5.598 -89.932,10.164 -200.2,10.164 -110.267,0 -200.2,-4.566 -200.2,-10.164 C -200.2,4.565 -110.267,0 0,0"
         style="fill:#692616;fill-opacity:1;fill-rule:evenodd;stroke:none"
         transform="matrix(1.3333333,0,0,-1.3333333,448.9088,655.5208)"
         clip-path="url(#clipPath27)" />
      <path
         id="path28"
         d="M 0,0 64.766,-49.736 H -158.699 L -93.934,0 C -65.845,21.569 -28.089,21.569 0,0"
         style="fill:#faf462;fill-opacity:1;fill-rule:evenodd;stroke:none"
         transform="matrix(1.3333333,0,0,-1.3333333,424.29427,435.83533)"
         clip-path="url(#clipPath29)" />
      <path
         id="path30"
         d="m 0,0 h -19.712 l 45.467,-103.603 h 19.71 z m -206.361,0 h 19.712 l -45.467,-103.603 h -19.712 z"
         style="fill:#f9de1c;fill-opacity:1;fill-rule:evenodd;stroke:none"
         transform="matrix(1.3333333,0,0,-1.3333333,586.48307,502.526)"
         clip-path="url(#clipPath31)" />
      <path
         id="path32"
         d="M 0,0 H -14.083 L 18.4,-103.603 h 14.083 z m -147.435,0 h 14.084 l -32.484,-103.603 h -14.085 z"
         style="fill:#f9de1c;fill-opacity:1;fill-rule:evenodd;stroke:none"
         transform="matrix(1.3333333,0,0,-1.3333333,547.1992,502.526)"
         clip-path="url(#clipPath33)" />
      <path
         id="path34"
         d="m 0,0 83.696,-64.272 h -230.258 v 44.94 L -121.389,0 C -85.092,27.874 -36.298,27.874 0,0"
         style="fill:#f9de1c;fill-opacity:1;fill-rule:evenodd;stroke:none"
         transform="matrix(1.3333333,0,0,-1.3333333,290.16467,416.45307)"
         clip-path="url(#clipPath35)" />
      <path
         id="path36"
         d="m 175.273,260.257 h 322.816 v 67.204 H 175.273 Z"
         style="fill:#463d3b;fill-opacity:1;fill-rule:evenodd;stroke:none"
         transform="matrix(1.3333333,0,0,-1.3333333,0,880)"
         clip-path="url(#clipPath37)" />
      <path
         id="path38"
         d="m 175.273,260.257 h 322.816 v 33.602 H 175.273 Z"
         style="fill:#2f2825;fill-opacity:1;fill-rule:evenodd;stroke:none"
         transform="matrix(1.3333333,0,0,-1.3333333,0,880)"
         clip-path="url(#clipPath39)" />
      <path
         id="path40"
         d="M 0,0 H 38.886 L 4.628,-52.901 h -38.885 z m -74.504,0 h 38.885 c -11.418,-17.633 -22.837,-35.267 -34.257,-52.901 h -38.885 c 11.42,17.634 22.838,35.268 34.257,52.901 m -149.005,0 h 38.885 l -34.257,-52.901 h -38.886 z m 74.503,0 h 38.885 c -11.419,-17.633 -22.839,-35.267 -34.258,-52.901 h -38.884 c 11.418,17.634 22.838,35.268 34.257,52.901"
         style="fill:#fbca07;fill-opacity:1;fill-rule:evenodd;stroke:none"
         transform="matrix(1.3333333,0,0,-1.3333333,594.1524,452.92187)"
         clip-path="url(#clipPath41)" />
      <path
         id="path42"
         d="m 0,0 h -38.885 l -17.129,-26.451 h 38.886 z M 149.007,0 H 110.119 L 92.992,-26.451 h 38.885 z m 74.502,0 h -38.885 l -17.128,-26.451 h 38.885 z M 74.504,0 57.374,-26.451 H 18.49 L 35.619,0 Z"
         style="fill:#fab40a;fill-opacity:1;fill-rule:evenodd;stroke:none"
         transform="matrix(1.3333333,0,0,-1.3333333,325.1484,488.1888)"
         clip-path="url(#clipPath43)" />
      <path
         id="path44"
         d="M 0,0 C 1.02,0 1.847,-0.826 1.847,-1.847 1.847,-2.866 1.02,-3.694 0,-3.694 c -1.02,0 -1.848,0.828 -1.848,1.847 C -1.848,-0.826 -1.02,0 0,0 m -16.016,-9.855 c 1.021,0 1.848,-0.827 1.848,-1.849 0,-1.021 -0.827,-1.848 -1.848,-1.848 -1.021,0 -1.848,0.827 -1.848,1.848 0,1.022 0.827,1.849 1.848,1.849 m 56.98,16.941 c 2.552,0 4.62,-2.069 4.62,-4.62 0,-2.553 -2.068,-4.622 -4.62,-4.622 -2.551,0 -4.62,2.069 -4.62,4.622 0,2.551 2.069,4.62 4.62,4.62 M 73.151,-5.236 c 1.275,0 2.31,-1.033 2.31,-2.31 0,-1.275 -1.035,-2.309 -2.31,-2.309 -1.277,0 -2.311,1.034 -2.311,2.309 0,1.277 1.034,2.31 2.311,2.31 m 8.777,16.632 c 2.212,0 4.004,-1.792 4.004,-4.003 0,-2.211 -1.792,-4.005 -4.004,-4.005 -2.211,0 -4.004,1.794 -4.004,4.005 0,2.211 1.793,4.003 4.004,4.003 M 26.026,-11.702 c 1.446,0 2.618,-1.173 2.618,-2.618 0,-1.448 -1.172,-2.618 -2.618,-2.618 -1.445,0 -2.618,1.17 -2.618,2.618 0,1.445 1.173,2.618 2.618,2.618 m -5.39,21.866 c 1.36,0 2.463,-1.101 2.463,-2.462 0,-1.362 -1.103,-2.465 -2.463,-2.465 -1.36,0 -2.464,1.103 -2.464,2.465 0,1.361 1.104,2.462 2.464,2.462 m 86.856,-17.862 c 1.02,0 1.848,-0.828 1.848,-1.848 0,-1.02 -0.828,-1.849 -1.848,-1.849 -1.02,0 -1.848,0.829 -1.848,1.849 0,1.02 0.828,1.848 1.848,1.848 m 55.132,12.934 c 2.04,0 3.696,-1.654 3.696,-3.694 0,-2.042 -1.656,-3.696 -3.696,-3.696 -2.04,0 -3.696,1.654 -3.696,3.696 0,2.04 1.656,3.694 3.696,3.694 M 202.664,0 c 1.021,0 1.848,-0.826 1.848,-1.847 0,-1.019 -0.827,-1.847 -1.848,-1.847 -1.02,0 -1.848,0.828 -1.848,1.847 0,1.021 0.828,1.847 1.848,1.847 M 155.54,-11.702 c 1.19,0 2.156,-0.966 2.156,-2.156 0,-1.192 -0.966,-2.157 -2.156,-2.157 -1.19,0 -2.156,0.965 -2.156,2.157 0,1.19 0.966,2.156 2.156,2.156 m -26.026,24.33 c 0.597,0 1.078,-0.482 1.078,-1.076 0,-0.597 -0.481,-1.078 -1.078,-1.078 -0.595,0 -1.078,0.481 -1.078,1.078 0,0.594 0.483,1.076 1.078,1.076 m 96.558,-9.24 c 1.871,0 3.388,-1.516 3.388,-3.388 0,-1.87 -1.517,-3.388 -3.388,-3.388 -1.87,0 -3.387,1.518 -3.387,3.388 0,1.872 1.517,3.388 3.387,3.388 m 14.784,-16.016 c 2.041,0 3.696,-1.654 3.696,-3.694 0,-2.042 -1.655,-3.697 -3.696,-3.697 -2.04,0 -3.695,1.655 -3.695,3.697 0,2.04 1.655,3.694 3.695,3.694 m 29.877,14.784 c 2.722,0 4.928,-2.206 4.928,-4.927 0,-2.721 -2.206,-4.927 -4.928,-4.927 -2.721,0 -4.927,2.206 -4.927,4.927 0,2.721 2.206,4.927 4.927,4.927 m 43.121,6.161 c 1.02,0 1.847,-0.827 1.847,-1.847 0,-1.021 -0.827,-1.848 -1.847,-1.848 -1.019,0 -1.848,0.827 -1.848,1.848 0,1.02 0.829,1.847 1.848,1.847 m -1.231,-16.631 c 2.209,0 4.003,-1.793 4.003,-4.004 0,-2.212 -1.794,-4.004 -4.003,-4.004 -2.213,0 -4.004,1.792 -4.004,4.004 0,2.211 1.791,4.004 4.004,4.004 m 34.958,14.168 c 1.615,0 2.925,-1.311 2.925,-2.926 0,-1.617 -1.31,-2.926 -2.925,-2.926 -1.618,0 -2.926,1.309 -2.926,2.926 0,1.615 1.308,2.926 2.926,2.926 M 385.31,2.773 c 1.36,0 2.464,-1.103 2.464,-2.463 0,-1.363 -1.104,-2.466 -2.464,-2.466 -1.361,0 -2.464,1.103 -2.464,2.466 0,1.36 1.103,2.463 2.464,2.463 M 370.064,-9.238 c 1.445,0 2.618,-1.173 2.618,-2.619 0,-1.447 -1.173,-2.618 -2.618,-2.618 -1.446,0 -2.617,1.171 -2.617,2.618 0,1.446 1.171,2.619 2.617,2.619 m 50.204,12.935 c 2.126,0 3.851,-1.723 3.851,-3.849 0,-2.127 -1.725,-3.85 -3.851,-3.85 -2.127,0 -3.849,1.723 -3.849,3.85 0,2.126 1.722,3.849 3.849,3.849 m 21.099,5.237 c 1.702,0 3.08,-1.378 3.08,-3.08 0,-1.701 -1.378,-3.079 -3.08,-3.079 -1.7,0 -3.08,1.378 -3.08,3.079 0,1.702 1.38,3.08 3.08,3.08 m 33.11,-3.697 c 2.637,0 4.773,-2.136 4.773,-4.773 0,-2.636 -2.136,-4.775 -4.773,-4.775 -2.636,0 -4.772,2.139 -4.772,4.775 0,2.637 2.136,4.773 4.772,4.773 m -14.938,-9.855 c 3.062,0 5.543,-2.482 5.543,-5.544 0,-3.061 -2.481,-5.544 -5.543,-5.544 -3.061,0 -5.544,2.483 -5.544,5.544 0,3.062 2.483,5.544 5.544,5.544 m -60.367,-6.006 c 1.785,0 3.233,-1.447 3.233,-3.234 0,-1.786 -1.448,-3.235 -3.233,-3.235 -1.787,0 -3.234,1.449 -3.234,3.235 0,1.787 1.447,3.234 3.234,3.234 M -21.56,9.548 c 1.021,0 1.848,-0.826 1.848,-1.848 0,-1.02 -0.827,-1.848 -1.848,-1.848 -1.021,0 -1.848,0.828 -1.848,1.848 0,1.022 0.827,1.848 1.848,1.848"
         style="fill:#a33b1f;fill-opacity:1;fill-rule:evenodd;stroke:none"
         transform="matrix(1.3333333,0,0,-1.3333333,137.23373,719.17707)"
         clip-path="url(#clipPath45)" />
    </g>
  </g>
</svg>
